<svg width="20" height="20" viewBox="0 0 20 20" fill="none" xmlns="http://www.w3.org/2000/svg">
<path d="M14.1667 10.8334L10.8334 18.3334C10.1703 18.3334 9.53445 18.07 9.06561 17.6011C8.59677 17.1323 8.33337 16.4964 8.33337 15.8334V12.5H3.61671C3.37512 12.5028 3.13582 12.453 2.9154 12.354C2.69497 12.2551 2.4987 12.1094 2.34016 11.9271C2.18162 11.7448 2.06462 11.5302 1.99726 11.2982C1.9299 11.0661 1.91378 10.8222 1.95004 10.5834L3.10004 3.08338C3.16031 2.68595 3.36218 2.3237 3.66845 2.06337C3.97473 1.80304 4.36477 1.66216 4.76671 1.66671H14.1667M14.1667 10.8334V1.66671M14.1667 10.8334H16.6667C17.1087 10.8334 17.5327 10.6578 17.8452 10.3452C18.1578 10.0327 18.3334 9.60874 18.3334 9.16671V3.33337C18.3334 2.89135 18.1578 2.46742 17.8452 2.15486C17.5327 1.8423 17.1087 1.66671 16.6667 1.66671H14.1667" stroke="#FFB703" stroke-width="2" stroke-linecap="round" stroke-linejoin="round"/>
</svg>
