<svg width="17" height="17" viewBox="0 0 17 17" fill="none" xmlns="http://www.w3.org/2000/svg">
<path d="M7.27184 1.25124C7.56222 0.311561 8.89231 0.311559 9.18269 1.25124L10.3702 5.09399C10.4996 5.51299 10.887 5.79874 11.3256 5.79874H15.271C16.2275 5.79874 16.6381 7.01272 15.878 7.5934L12.6012 10.0967C12.2682 10.3511 12.1291 10.7861 12.2529 11.1865L13.4839 15.1702C13.7714 16.1005 12.6951 16.8512 11.9214 16.2601L8.83433 13.9018C8.47593 13.628 7.9786 13.628 7.6202 13.9018L4.53312 16.2601C3.75943 16.8512 2.68318 16.1005 2.97063 15.1702L4.20166 11.1866C4.32539 10.7861 4.18633 10.3511 3.8533 10.0967L0.576499 7.5934C-0.183615 7.01272 0.227027 5.79874 1.18356 5.79874H5.12895C5.5675 5.79874 5.95489 5.51299 6.08437 5.09399L7.27184 1.25124Z" fill="#FFB703"/>
</svg>
